<?xml version="1.0" encoding="UTF-8" standalone="no"?>
<svg
   xmlns:dc="http://purl.org/dc/elements/1.1/"
   xmlns:cc="http://creativecommons.org/ns#"
   xmlns:rdf="http://www.w3.org/1999/02/22-rdf-syntax-ns#"
   xmlns:svg="http://www.w3.org/2000/svg"
   xmlns="http://www.w3.org/2000/svg"
   xmlns:sodipodi="http://sodipodi.sourceforge.net/DTD/sodipodi-0.dtd"
   xmlns:inkscape="http://www.inkscape.org/namespaces/inkscape"
   height="300px"
   width="300px"
   fill="#000000"
   version="1.1"
   x="0px"
   y="0px"
   viewBox="0 0 100 100"
   enable-background="new 0 0 100 100"
   xml:space="preserve"
   id="svg4"
   sodipodi:docname="amenity_chair.svg"
   inkscape:version="0.92.4 5da689c313, 2019-01-14"><metadata
     id="metadata10"><rdf:RDF><cc:Work
         rdf:about=""><dc:format>image/svg+xml</dc:format><dc:type
           rdf:resource="http://purl.org/dc/dcmitype/StillImage" /></cc:Work></rdf:RDF></metadata><defs
     id="defs8" /><sodipodi:namedview
     pagecolor="#ffffff"
     bordercolor="#666666"
     borderopacity="1"
     objecttolerance="10"
     gridtolerance="10"
     guidetolerance="10"
     inkscape:pageopacity="0"
     inkscape:pageshadow="2"
     inkscape:window-width="1920"
     inkscape:window-height="1015"
     id="namedview6"
     showgrid="false"
     inkscape:zoom="0.78666667"
     inkscape:cx="-47.033898"
     inkscape:cy="150"
     inkscape:window-x="0"
     inkscape:window-y="452"
     inkscape:window-maximized="1"
     inkscape:current-layer="svg4" /><path
     d="M77.342,49.317L52.796,37.044L48.98,3.659c-0.188-1.646-1.674-2.828-3.321-2.64c-0.342,0.039-0.708,0.157-1.001,0.297  l-26,13c-1.072,0.557-1.784,1.752-1.639,3.024L21,52.17V83c0,1.657,1.343,3,3,3s3-1.343,3-3V56.854l20,10V96c0,1.657,1.343,3,3,3  c1.657,0,3-1.343,3-3V66.854l20-10V83c0,1.657,1.343,3,3,3s3-1.343,3-3V52C79,50.873,78.262,49.83,77.342,49.317z M46.781,37.255  L26.494,47.399l-2.356-20.614l20.288-10.144L46.781,37.255z"
     id="path2"
     style="fill:#8e7409;fill-opacity:1" /></svg>