<svg height="300px" width="300px" fill="#000000" xmlns="http://www.w3.org/2000/svg" xmlns:xlink="http://www.w3.org/1999/xlink" version="1.1" x="0px" y="0px" viewBox="0 0 100 100" enable-background="new 0 0 100 100" xml:space="preserve"><g><path d="M42.668,58.301L17.897,72.088c0.853,1.324,2.045,2.395,3.088,3.572l21.934-12.244c0.136-1.54-0.457-3.232,0.429-4.643   C44.016,57.924,43.329,57.692,42.668,58.301z"/><path d="M55.404,42.422c-0.669-3.748-1.152-7.554-2.138-11.23c-1.201-2.034-3.91-1.378-5.879-1.546   c-1.743,0.088-3.913-0.254-5.144,1.283c-1.259,1.522-1.91,3.434-2.973,5.085c-1.321,2.527-2.551,5.121-4.215,7.448   c-2.162,1.402-4.764,1.843-7.111,2.849c-2.09,0.782-4.276,1.328-6.329,2.185c-2.114,1.177-1.934,5.036,0.749,5.295   c2.719,0.163,5.164-1.334,7.683-2.138c2.538-0.913,5.058-1.89,7.614-2.725c1.193-0.243,2.527-2.264,2.989-2.219   c0.104,2.843,0.092,5.698-0.026,8.54c0.229,0.844-1.735,3.473,0.064,2.651c1.812-1.155,4.379-1.823,5-4.19   c1.108-2.237,1.533-4.397,2.594-6.656l-0.894-5.929l1.452-0.375l1.233,4.929c0.442,1.554-0.468,2.913-1.098,4.247   c-1.657,3.65-3.508,7.233-4.862,11.006c-0.396,2.45,2.775,4.086,4.643,2.568v0c2.729-4.748,4.903-9.781,7.151-14.767   C56.449,46.633,55.579,44.518,55.404,42.422z"/><path d="M56.452,50.834c-1.018,2.307-2.102,4.584-3.059,6.917l28.707-15.106l-0.765-5.359L56.452,50.834z"/><circle cx="47.668" cy="21.405" r="5.521"/></g></svg>