<?xml version="1.0" encoding="UTF-8" standalone="no"?>
<svg
   xmlns:dc="http://purl.org/dc/elements/1.1/"
   xmlns:cc="http://creativecommons.org/ns#"
   xmlns:rdf="http://www.w3.org/1999/02/22-rdf-syntax-ns#"
   xmlns:svg="http://www.w3.org/2000/svg"
   xmlns="http://www.w3.org/2000/svg"
   xmlns:sodipodi="http://sodipodi.sourceforge.net/DTD/sodipodi-0.dtd"
   xmlns:inkscape="http://www.inkscape.org/namespaces/inkscape"
   height="300px"
   width="300px"
   fill="#000000"
   version="1.1"
   x="0px"
   y="0px"
   viewBox="0 0 100 100"
   enable-background="new 0 0 100 100"
   xml:space="preserve"
   id="svg4"
   sodipodi:docname="barrier_hedge.svg"
   inkscape:version="0.92.4 5da689c313, 2019-01-14"><metadata
     id="metadata10"><rdf:RDF><cc:Work
         rdf:about=""><dc:format>image/svg+xml</dc:format><dc:type
           rdf:resource="http://purl.org/dc/dcmitype/StillImage" /></cc:Work></rdf:RDF></metadata><defs
     id="defs8" /><sodipodi:namedview
     pagecolor="#ffffff"
     bordercolor="#666666"
     borderopacity="1"
     objecttolerance="10"
     gridtolerance="10"
     guidetolerance="10"
     inkscape:pageopacity="0"
     inkscape:pageshadow="2"
     inkscape:window-width="1920"
     inkscape:window-height="1015"
     id="namedview6"
     showgrid="false"
     inkscape:zoom="0.78666667"
     inkscape:cx="-47.033898"
     inkscape:cy="150"
     inkscape:window-x="0"
     inkscape:window-y="452"
     inkscape:window-maximized="1"
     inkscape:current-layer="svg4" /><path
     d="M88.619,27.689l-4.964,3.335v3.811v3.036H67.837v-3.036v-3.811l-4.964-3.335l-4.964,3.335v3.811v3.036H42.091v-3.036v-3.811  l-4.965-3.335l-4.964,3.335v3.811v3.036H16.345v-3.036v-3.811l-4.964-3.335l-4.964,3.335v3.811v3.036v9.005v6.442v9.005v9.987h9.927  v-9.987h15.818v9.987h9.928v-9.987h15.818v9.987h9.927v-9.987h15.818v9.987h9.927v-9.987v-9.005v-6.442v-9.005v-3.036v-3.811  L88.619,27.689z M16.345,53.319v-6.442h15.818v6.442H16.345z M42.091,53.319v-6.442h15.818v6.442H42.091z M83.655,53.319H67.837  v-6.442h15.818V53.319z"
     id="path2"
     style="fill:#666666;fill-opacity:1" /></svg>