<svg height="300px" width="300px" fill="#000000" xmlns="http://www.w3.org/2000/svg" xmlns:xlink="http://www.w3.org/1999/xlink" version="1.1" x="0px" y="0px" viewBox="0 0 55 55" style="enable-background:new 0 0 55 55;" xml:space="preserve"><g><g><path d="M42.5454102,26.114397c-0.03125,0-0.0614014,0.0043335-0.0925293,0.0046997l-1.5494385-7.6676025l0.3880615,0.180481    c0.2050781,0.0952148,0.4199219,0.140625,0.6318359,0.140625c0.5654297,0,1.1064453-0.3212891,1.3613281-0.8676758    c0.3486328-0.7514648,0.0234375-1.6435547-0.7275391-1.9926748l-5.8378906-2.715332    c-0.7529297-0.3486328-1.6435547-0.0234375-1.9931641,0.7270508c-0.3486328,0.7514648-0.0234375,1.6435547,0.7275391,1.9926758    l2.0762939,0.9657583c0.0026855,0.0160522,0.0015259,0.0317993,0.0047607,0.0479126l0.4599609,2.2763672H25.4898682    l-1.0777588-1.0780029c0.8057251-0.0256958,1.4526367-0.6828613,1.4526367-1.4952393c0-0.8286123-0.671875-1.499999-1.5-1.499999    h-6.2294922c-0.828125,0-1.5,0.6713867-1.5,1.499999c0,0.8286133,0.671875,1.5,1.5,1.5h2.0482178    c0.007019,0.0073242,0.0090332,0.0172119,0.0162354,0.0244141l2.2388916,2.239563l-5.7948608,6.928833    c-1.2166138-0.7632446-2.6498413-1.211853-4.1891479-1.211853c-4.3642578,0-7.9140625,3.550293-7.9140625,7.9140644    c0,4.3642578,3.5498047,7.9145508,7.9140625,7.9145508c4.2350464,0,7.6929932-3.3458252,7.8946533-7.5316772l10.8846436-1.6792603    c0.0182495-0.0028076,0.0330811-0.0148926,0.0511475-0.0183716c0.1629639-0.0310059,0.3239746-0.0795898,0.4752197-0.1676636    c0.0029907-0.001709,0.005249-0.0041504,0.0081787-0.0059204c0.0055542-0.0032959,0.0100098-0.0079346,0.015564-0.0112915    c0.1635742-0.0996094,0.3024902-0.2246704,0.4123535-0.3685303c0.0012207-0.0015869,0.0031128-0.0023193,0.0043335-0.0039063    l0.0037231-0.0049438c0.0005493-0.0007324,0.0012207-0.0014648,0.00177-0.0022583l6.6364746-8.7460346l0.6704102,3.3175049    c-2.8630981,1.1924438-4.8817139,4.0179443-4.8817139,7.3078022c0,4.3642578,3.5498047,7.9145508,7.9140625,7.9145508    s7.9140625-3.550293,7.9140625-7.9145508C50.4594727,29.66469,46.909668,26.114397,42.5454102,26.114397z M16.8106079,31.8023243    c0.019165,0.0372925,0.041687,0.0723877,0.0599365,0.1102905l-0.1747437,0.0269775L16.8106079,31.8023243z M18.8414307,29.3742847    l5.5054932-6.5823364l4.2548828,7.3106689l-8.6762085,1.338623    C19.6663208,30.6949024,19.2991943,30.0007496,18.8414307,29.3742847z M12.4545898,38.9430122    c-2.7099609,0-4.9140625-2.2045898-4.9140625-4.9145508c0-2.7094746,2.2041016-4.9140644,4.9140625-4.9140644    c0.805603,0,1.5551147,0.2133789,2.2266846,0.5583496l-2.8380127,3.3933125    c-0.4003906,0.4790039-0.4628906,1.1557617-0.15625,1.699707c0.2685547,0.4760742,0.7714844,0.7626953,1.3066406,0.7626953    c0.0751953,0,0.1523438-0.0058594,0.2285156-0.0175781l4.0599365-0.6263428    C16.8746338,37.1861153,14.8713989,38.9430122,12.4545898,38.9430122z M31.1697998,28.5514088l-3.6930542-6.3447266h8.5071411    L31.1697998,28.5514088z M42.5454102,38.9430122c-2.7099609,0-4.9140625-2.2045898-4.9140625-4.9145508    c0-1.8275757,1.0145264-3.4067402,2.4989014-4.2532978l1.0987549,5.4373798    c0.1445313,0.7119141,0.7695313,1.2036133,1.46875,1.2036133c0.0986328,0,0.1992188-0.0097656,0.2988281-0.0302734    c0.8125-0.1640625,1.3378906-0.9550781,1.1738281-1.7670898l-1.1015625-5.451479    c2.4613037,0.2653809,4.390625,2.3308716,4.390625,4.8611469C47.4594727,36.7384224,45.2553711,38.9430122,42.5454102,38.9430122z    "/></g></g></svg>