<?xml version="1.0" encoding="UTF-8" standalone="no"?>
<svg
   xmlns:dc="http://purl.org/dc/elements/1.1/"
   xmlns:cc="http://creativecommons.org/ns#"
   xmlns:rdf="http://www.w3.org/1999/02/22-rdf-syntax-ns#"
   xmlns:svg="http://www.w3.org/2000/svg"
   xmlns="http://www.w3.org/2000/svg"
   width="32"
   height="32"
   viewBox="0 0 8.4666665 8.4666669"
   version="1.1"
   id="svg8">
  <defs
     id="defs2">
    <marker
       style="overflow:visible"
       id="TriangleInS"
       refX="0.0"
       refY="0.0"
       orient="auto">
      <path
         transform="scale(-0.2)"
         style="fill-rule:evenodd;stroke:#000000;stroke-width:1pt;stroke-opacity:1;fill:#000000;fill-opacity:1"
         d="M 5.77,0.0 L -2.88,5.0 L -2.88,-5.0 L 5.77,0.0 z "
         id="path4754" />
    </marker>
    <marker
       orient="auto"
       refY="0.0"
       refX="0.0"
       id="TriangleOutS"
       style="overflow:visible">
      <path
         id="path4693"
         d="M 5.77,0.0 L -2.88,5.0 L -2.88,-5.0 L 5.77,0.0 z "
         style="fill-rule:evenodd;stroke:#000000;stroke-width:1pt;stroke-opacity:1;fill:#000000;fill-opacity:1"
         transform="scale(0.2)" />
    </marker>
    <marker
       orient="auto"
       refY="0.0"
       refX="0.0"
       id="TriangleOutM"
       style="overflow:visible">
      <path
         id="path4690"
         d="M 5.77,0.0 L -2.88,5.0 L -2.88,-5.0 L 5.77,0.0 z "
         style="fill-rule:evenodd;stroke:#000000;stroke-width:1pt;stroke-opacity:1;fill:#000000;fill-opacity:1"
         transform="scale(0.4)" />
    </marker>
    <marker
       orient="auto"
       refY="0.0"
       refX="0.0"
       id="Arrow2Mend"
       style="overflow:visible;">
      <path
         id="path4572"
         style="fill-rule:evenodd;stroke-width:0.625;stroke-linejoin:round;stroke:#000000;stroke-opacity:1;fill:#000000;fill-opacity:1"
         d="M 8.7185878,4.0337352 L -2.2072895,0.016013256 L 8.7185884,-4.0017078 C 6.9730900,-1.6296469 6.9831476,1.6157441 8.7185878,4.0337352 z "
         transform="scale(0.6) rotate(180) translate(0,0)" />
    </marker>
    <marker
       orient="auto"
       refY="0.0"
       refX="0.0"
       id="Arrow2Mstart"
       style="overflow:visible">
      <path
         id="path4569"
         style="fill-rule:evenodd;stroke-width:0.625;stroke-linejoin:round;stroke:#000000;stroke-opacity:1;fill:#000000;fill-opacity:1"
         d="M 8.7185878,4.0337352 L -2.2072895,0.016013256 L 8.7185884,-4.0017078 C 6.9730900,-1.6296469 6.9831476,1.6157441 8.7185878,4.0337352 z "
         transform="scale(0.6) translate(0,0)" />
    </marker>
    <marker
       orient="auto"
       refY="0.0"
       refX="0.0"
       id="Arrow1Send"
       style="overflow:visible;">
      <path
         id="path4560"
         d="M 0.0,0.0 L 5.0,-5.0 L -12.5,0.0 L 5.0,5.0 L 0.0,0.0 z "
         style="fill-rule:evenodd;stroke:#000000;stroke-width:1pt;stroke-opacity:1;fill:#000000;fill-opacity:1"
         transform="scale(0.2) rotate(180) translate(6,0)" />
    </marker>
    <marker
       orient="auto"
       refY="0.0"
       refX="0.0"
       id="Arrow2Lend"
       style="overflow:visible;">
      <path
         id="path4566"
         style="fill-rule:evenodd;stroke-width:0.625;stroke-linejoin:round;stroke:#000000;stroke-opacity:1;fill:#000000;fill-opacity:1"
         d="M 8.7185878,4.0337352 L -2.2072895,0.016013256 L 8.7185884,-4.0017078 C 6.9730900,-1.6296469 6.9831476,1.6157441 8.7185878,4.0337352 z "
         transform="scale(1.1) rotate(180) translate(1,0)" />
    </marker>
  </defs>
  <metadata
     id="metadata5">
    <rdf:RDF>
      <cc:Work
         rdf:about="">
        <dc:format>image/svg+xml</dc:format>
        <dc:type
           rdf:resource="http://purl.org/dc/dcmitype/StillImage" />
        <dc:title></dc:title>
      </cc:Work>
    </rdf:RDF>
  </metadata>
  <path
     id="path4543"
     d="m 3.8301356,2.5815494 -2.85171171,2.85171"
     style="fill:none;stroke:#000000;stroke-width:0.69426668;stroke-linecap:butt;stroke-linejoin:miter;stroke-miterlimit:4;stroke-dasharray:none;stroke-opacity:1;marker-end:url(#TriangleOutS)" />
  <g
     transform="matrix(-0.07846479,0,0,0.07846479,9.8936647,0.31009385)"
     id="g5056"
     style="fill:#000000">
    <g
       id="g5043">
      <path
         d="m 36.296,13.273 c 0,0 2.9,-0.581 5.221,-2.01 -0.254,0.825 -0.392,1.701 -0.392,2.61 0,4.901 3.974,8.873 8.874,8.873 4.901,0 8.875,-3.972 8.875,-8.873 C 58.874,8.972 54.9,5 49.999,5 47.112,5 44.556,6.385 42.935,8.52 41.576,7.535 38.751,6.146 36.257,9.205 c 0,0 -2.078,2.637 -5.375,0.291 0,-0.001 0.789,4.754 5.414,3.777 z"
         id="path5039" />
      <path
         d="M 73.081,45.267 58.938,28.722 56.432,26.706 c 0,-4.329 -1.563,-1.256 -6.197,-1.256 h -0.23 -0.01 -0.23 c -4.635,0 -6.197,-3.073 -6.197,1.256 l -2.506,2.016 -14.143,16.545 c -1.453,1.698 -1.252,4.251 0.447,5.703 0.763,0.65 1.695,0.969 2.625,0.969 1.141,0 2.275,-0.48 3.076,-1.416 l 6.99,-8.18 -3.396,27.305 h 5.089 v 0.285 L 38.796,90.58 c -0.206,2.224 1.428,4.195 3.65,4.403 0.129,0.011 0.256,0.017 0.382,0.017 2.063,0 3.824,-1.572 4.021,-3.667 l 2.857,-19.637 h 0.288 0.01 0.289 l 2.857,19.637 c 0.199,2.095 1.96,3.667 4.023,3.667 0.126,0 0.252,-0.006 0.381,-0.017 2.223,-0.208 3.857,-2.18 3.65,-4.403 L 58.251,69.933 v -0.285 h 5.089 l -3.397,-27.305 6.99,8.18 c 0.802,0.936 1.936,1.416 3.076,1.416 0.93,0 1.863,-0.318 2.626,-0.969 1.698,-1.452 1.899,-4.005 0.446,-5.703 z"
         id="path5041" />
    </g>
  </g>
</svg>
