<svg height="300px" width="300px" fill="#000000" xmlns="http://www.w3.org/2000/svg" xmlns:xlink="http://www.w3.org/1999/xlink" version="1.1" x="0px" y="0px" viewBox="0 0 100 100" enable-background="new 0 0 100 100" xml:space="preserve"><polygon points="65,20 62.542,20 88.593,80 95,80 "/><polygon points="35,20 5,80 11.405,80 37.461,20 "/><path d="M51.333,20l0.073,5.874h-0.563h-1.688h-0.563L48.667,20h-9.832L13.889,80h34.042l0.099-9.02h3.937l0.1,9.02h34.041  L61.165,20H51.333z M48.481,34.896h0.788h1.462h0.789l0.112,9.02h-1.014h-1.237h-1.014L48.481,34.896z M50.395,61.957h-0.788h-1.462  l0.112-9.02h1.236h1.014h1.236l0.113,9.02H50.395z"/></svg>