<svg height="300px" width="300px" fill="#000000" xmlns="http://www.w3.org/2000/svg" xmlns:xlink="http://www.w3.org/1999/xlink" version="1.1" x="0px" y="0px" viewBox="0 0 100 100" enable-background="new 0 0 100 100" xml:space="preserve"><g><path d="M50,21.269L3.447,50L50,78.732L96.553,50L50,21.269z M39.832,71.004l0.555-0.342l-0.648-1.053l-1.082,0.668l-10.168-6.273   l0.555-0.344l-0.648-1.051l-1.083,0.666l-10.167-6.273l0.555-0.344l-0.648-1.051l-1.083,0.668L5.801,50l10.167-6.275l1.083,0.667   l0.648-1.052l-0.555-0.342l10.168-6.275l1.082,0.667l0.648-1.052l-0.555-0.342l10.168-6.275l1.082,0.668l0.648-1.053l-0.555-0.342   L50,22.721l10.167,6.275l-0.555,0.342l0.649,1.053l1.082-0.668l10.168,6.275l-0.556,0.342l0.649,1.052l1.082-0.668l10.167,6.275   l-0.556,0.342l0.649,1.052l1.083-0.667L94.199,50l-10.167,6.275l-1.084-0.668l-0.649,1.051l0.556,0.344l-10.167,6.273l-1.082-0.666   l-0.649,1.051l0.556,0.344l-10.168,6.275l-1.082-0.67l-0.649,1.053l0.556,0.342L50,77.279L39.832,71.004z"/><rect x="77.64" y="44.9" transform="matrix(0.5254 0.8509 -0.8509 0.5254 76.7612 -44.4884)" width="1.236" height="3.323"/><polygon points="51.061,62.621 50,63.275 48.823,62.551 48.174,63.604 48.822,64.004 48.232,64.367 48.882,65.42 50,64.729    51.002,65.35 51.653,64.297 51.177,64.004 51.711,63.674  "/><rect x="43.697" y="65.85" transform="matrix(-0.5252 -0.851 0.851 -0.5252 10.1336 140.6778)" width="1.235" height="3.324"/><polygon points="71.512,51.453 72.688,50.727 73.69,51.346 74.34,50.293 73.864,50 74.34,49.707 73.69,48.655 72.688,49.273    71.512,48.548 70.862,49.6 71.511,50 70.862,50.401  "/><rect x="66.325" y="51.882" transform="matrix(-0.525 -0.8511 0.8511 -0.525 56.5186 138.6319)" width="1.237" height="3.326"/><rect x="55.01" y="58.866" transform="matrix(-0.525 -0.8511 0.8511 -0.525 33.3204 139.6522)" width="1.237" height="3.325"/><polygon points="60.196,58.436 61.344,57.729 62.346,58.348 62.996,57.295 62.521,57 63.025,56.689 62.376,55.639 61.344,56.275    60.168,55.549 59.519,56.602 60.167,57.002 59.547,57.385  "/><rect x="66.296" y="37.899" transform="matrix(0.525 0.8511 -0.8511 0.525 65.4531 -38.1595)" width="1.237" height="3.324"/><rect x="43.667" y="51.865" transform="matrix(-0.5257 -0.8507 0.8507 -0.5257 22.0332 119.3391)" width="1.235" height="3.324"/><rect x="53.938" y="45.926" transform="matrix(0.851 -0.5252 0.5252 0.851 -16.1594 36.1382)" width="3.325" height="1.237"/><polygon points="60.168,44.451 61.344,43.725 62.376,44.362 63.025,43.311 62.521,42.999 62.996,42.705 62.346,41.653    61.344,42.272 60.196,41.565 59.547,42.617 60.167,42.999 59.519,43.399  "/><polygon points="51.032,48.637 50,49.273 48.852,48.565 48.203,49.618 48.822,50 48.203,50.382 48.854,51.436 50,50.727    51.032,51.363 51.682,50.312 51.177,50 51.682,49.688  "/><polygon points="39.717,55.619 38.655,56.275 37.509,55.568 36.859,56.619 37.479,57 36.889,57.365 37.537,58.418 38.655,57.729    39.688,58.365 40.338,57.313 39.832,57 40.367,56.672  "/><rect x="32.352" y="58.849" transform="matrix(-0.5263 -0.8503 0.8503 -0.5263 -1.1305 120.3917)" width="1.236" height="3.323"/><rect x="21.008" y="51.847" transform="matrix(-0.525 -0.8511 0.8511 -0.525 -12.5599 100.0081)" width="1.237" height="3.324"/><rect x="32.323" y="44.864" transform="matrix(0.5248 0.8512 -0.8512 0.5248 55.2574 -5.9311)" width="1.236" height="3.325"/><polygon points="28.373,48.619 27.313,49.274 26.193,48.584 25.545,49.636 26.135,50 25.545,50.364 26.193,51.416 27.313,50.727    28.373,51.381 29.022,50.33 28.488,50 29.023,49.67  "/><polygon points="40.338,42.687 39.688,41.635 38.656,42.273 37.537,41.582 36.889,42.635 37.479,42.999 36.859,43.381    37.509,44.433 38.656,43.725 39.717,44.38 40.367,43.329 39.832,42.999  "/><polygon points="51.653,35.704 51.002,34.652 50,35.271 48.882,34.582 48.232,35.633 48.822,35.998 48.175,36.397 48.823,37.45    50,36.724 51.061,37.379 51.711,36.327 51.177,35.998  "/><rect x="43.638" y="37.881" transform="matrix(-0.5248 -0.8512 0.8512 -0.5248 33.8218 97.9665)" width="1.236" height="3.324"/><rect x="54.952" y="30.897" transform="matrix(0.5254 0.8509 -0.8509 0.5254 54.0784 -31.8299)" width="1.236" height="3.324"/><rect x="42.653" y="31.87" transform="matrix(-0.851 -0.5252 0.5252 -0.851 64.9609 83.4107)" width="3.323" height="1.236"/><rect x="53.967" y="38.854" transform="matrix(-0.851 -0.5251 0.5251 -0.851 82.2443 102.275)" width="3.324" height="1.236"/><rect x="76.596" y="52.82" transform="matrix(0.8509 0.5253 -0.5253 0.8509 39.7426 -33.1443)" width="3.324" height="1.237"/><rect x="65.281" y="45.837" transform="matrix(-0.8511 -0.525 0.525 -0.8511 99.5302 121.1383)" width="3.324" height="1.236"/><rect x="42.623" y="45.855" transform="matrix(-0.8511 -0.525 0.525 -0.8511 57.5771 109.276)" width="3.324" height="1.236"/><rect x="53.937" y="52.838" transform="matrix(-0.8509 -0.5253 0.5253 -0.8509 74.8251 128.1499)" width="3.324" height="1.237"/><rect x="31.307" y="38.872" transform="matrix(-0.8511 -0.525 0.525 -0.8511 40.2997 90.4089)" width="3.325" height="1.236"/><rect x="65.252" y="59.822" transform="matrix(0.851 0.5252 -0.5252 0.851 41.7161 -26.1367)" width="3.325" height="1.237"/><rect x="19.964" y="45.873" transform="matrix(-0.8511 -0.525 0.525 -0.8511 15.625 97.4139)" width="3.324" height="1.236"/><rect x="42.594" y="59.84" transform="matrix(0.8509 0.5253 -0.5253 0.8509 38.3601 -14.2344)" width="3.324" height="1.237"/><rect x="31.279" y="52.857" transform="matrix(0.8509 0.5253 -0.5253 0.8509 33.0043 -9.3317)" width="3.324" height="1.235"/><rect x="53.908" y="66.822" transform="matrix(-0.851 -0.5252 0.5252 -0.851 67.4386 154.0165)" width="3.325" height="1.237"/></g></svg>