<svg height="300px" width="300px" fill="#000000" xmlns="http://www.w3.org/2000/svg" viewBox="0 0 66 55" x="0px" y="0px"><path fill="#000000" d="M703,75.6465856 L703,98.5857864 L708,103.585786 L708,88 C708,87.1866274 708.91937,86.7135033 709.581238,87.1862665 L716.581238,92.1862665 C716.844034,92.373978 717,92.6770489 717,93 L717,112.585786 L722.707107,118.292893 C723.097631,118.683418 723.097631,119.316582 722.707107,119.707107 C722.316582,120.097631 721.683418,120.097631 721.292893,119.707107 L701.585786,100 L678.414214,100 L658.707107,119.707107 C658.316582,120.097631 657.683418,120.097631 657.292893,119.707107 C656.902369,119.316582 656.902369,118.683418 657.292893,118.292893 L663,112.585786 L663,93 C663,92.6770489 663.155966,92.373978 663.418762,92.1862665 L670.418762,87.1862665 C671.08063,86.7135033 672,87.1866274 672,88 L672,103.585786 L677,98.5857864 L677,75.6465856 L657.589635,66.9119215 C657.085995,66.6852834 656.86144,66.0932757 657.088078,65.5896353 C657.314717,65.085995 657.906724,64.8614403 658.410365,65.0880785 L678.214635,74 L701.785365,74 L721.589635,65.0880785 C722.093276,64.8614403 722.685283,65.085995 722.911922,65.5896353 C723.13856,66.0932757 722.914005,66.6852834 722.410365,66.9119215 L703,75.6465856 Z M696,98 L701,98 L701,76 L679,76 L679,98 L684,98 L684,84 C684,83.4477153 684.447715,83 685,83 L695,83 C695.552285,83 696,83.4477153 696,84 L696,98 Z M686,85 L686,98 L694,98 L694,85 L686,85 Z M710,89.9431893 L710,105.585786 L715,110.585786 L715,93.5146179 L710,89.9431893 Z M670,89.9431893 L665,93.5146179 L665,110.585786 L670,105.585786 L670,89.9431893 Z" transform="translate(-657 -65)"/></svg>