<svg height="300px" width="300px" fill="#000000" xmlns="http://www.w3.org/2000/svg" data-name="Layer 1" viewBox="0 0 100 100" x="0px" y="0px"><title>Motorcycle</title><path d="M21.55,76.65A14.22,14.22,0,1,1,35.77,62.44,14.23,14.23,0,0,1,21.55,76.65Zm0-23.71a9.5,9.5,0,1,0,9.5,9.5A9.51,9.51,0,0,0,21.55,52.94Z"/><path d="M78.45,76.65A14.22,14.22,0,1,1,92.66,62.44,14.24,14.24,0,0,1,78.45,76.65Zm0-23.71a9.5,9.5,0,1,0,9.5,9.5A9.51,9.51,0,0,0,78.45,52.94Z"/><path d="M78.77,64.79a2.37,2.37,0,0,1-1.36-.42c-4.55-3.2-5.72-6.55-7.35-11.18-.7-2-1.49-4.26-2.71-7a2.36,2.36,0,0,1,4.32-1.89c1.29,2.93,2.15,5.38,2.84,7.36,1.53,4.36,2.3,6.55,5.61,8.88a2.35,2.35,0,0,1-1.35,4.28Z"/><path d="M52.06,64.79H20.19a2.36,2.36,0,1,1,0-4.71H52.06a2.36,2.36,0,1,1,0,4.71Z"/><path d="M12.47,44.08H26.63a2.55,2.55,0,0,1,1.67.6l10.48,9a2.08,2.08,0,0,1,.74,1.57v9a2.3,2.3,0,0,0,2.41,2.17H57.7a2.3,2.3,0,0,0,2.41-2.17V56.83a2,2,0,0,1,.54-1.36l9.56-10.59a2.49,2.49,0,0,1,1.87-.8H76.8A2.19,2.19,0,0,0,79,40.94l-3.5-6.3a2.47,2.47,0,0,0-2.16-1.2H62a2.76,2.76,0,0,0-.91.16L43.89,39.92a2.63,2.63,0,0,1-2.11-.13L30.05,33.73a2.62,2.62,0,0,0-1.2-.29H17.35a2.49,2.49,0,0,0-2,.93l-4.89,6.3A2.17,2.17,0,0,0,12.47,44.08Z"/><path d="M76.72,43.14a2.38,2.38,0,0,1-2.13-1.34L68,28.06H56.76a2.36,2.36,0,1,1,0-4.71H71l7.85,16.41a2.37,2.37,0,0,1-1.11,3.15A2.33,2.33,0,0,1,76.72,43.14Z"/></svg>