<svg height="300px" width="300px" fill="#000000" xmlns="http://www.w3.org/2000/svg" viewBox="0 0 32 32" x="0px" y="0px"><title>Ecommerce, marketplace, shop, Sport</title><g data-name="Layer 16"><path d="M19.82,23.58a11,11,0,0,1-6-1.65l-8,8L2.35,26.36l8-8a10.89,10.89,0,0,1-1.4-8.07L19.86,21.24c0,.07,0,.14-.05.21a4.13,4.13,0,0,0-.07.76c0,.1,0,.22,0,.32A5.26,5.26,0,0,0,19.82,23.58Zm5.9-7.06a5.71,5.71,0,0,1,2.55.59,4.83,4.83,0,0,1,1.11.67A11,11,0,0,0,19.67,1.57,10.87,10.87,0,0,0,11.9,4.8,11.2,11.2,0,0,0,9.61,8.16l11.1,11.1A6,6,0,0,1,25.72,16.52Zm5,6a5,5,0,0,0-1.86-3.89,4.79,4.79,0,0,0-1-.62,4.88,4.88,0,0,0-2.12-.49A5,5,0,0,0,21.43,20a5.31,5.31,0,0,0-.63,1.62,4.34,4.34,0,0,0-.05.53.47.47,0,0,0,0,.17c0,.08,0,.15,0,.22a5.36,5.36,0,0,0,.1,1,5,5,0,0,0,4.9,4,5,5,0,0,0,5-5Z"/></g></svg>