<svg height="300px" width="300px" fill="#000000" xmlns="http://www.w3.org/2000/svg" xmlns:xlink="http://www.w3.org/1999/xlink" xml:space="preserve" version="1.1" style="shape-rendering:geometricPrecision;text-rendering:geometricPrecision;image-rendering:optimizeQuality;" viewBox="0 0 846.66 846.66" x="0px" y="0px" fill-rule="evenodd" clip-rule="evenodd"><defs><style type="text/css">
   
    .fil0 {fill:#000000;fill-rule:nonzero}
   
  </style></defs><g><path class="fil0" d="M84.44 779.06c225.93,0 451.85,0 677.78,0l0 -504.51 -80.49 0 0 90.59 -119.46 0 0 90.57 -119.46 0 0 90.58 -119.45 0 0 90.58 -119.46 0 0 90.58 -119.46 0 0 51.61zm-19.49 -102.76l0 -647.68 119.46 0 0 90.58 119.46 0 0 90.58 119.46 0 0 90.58 119.46 0 0 13.63 -31.66 0c0,30.19 0,60.38 0,90.57 -39.82,0 -79.65,0 -119.46,0 0,30.19 0,60.39 0,90.59 -39.82,0 -79.64,0 -119.46,0 0,30.19 0,60.39 0,90.58 -39.82,0 -79.64,0 -119.46,0 0,30.19 0,60.38 0,90.57l-87.8 0zm-19.48 141.73l0 -129.55 119.46 0 0 -90.57 119.46 0 0 -90.59 119.46 0 0 -90.58 119.45 0 0 -90.57 119.46 0 0 -90.59c52.82,0 105.62,0 158.43,0l0 582.45c-251.9,0 -503.82,0 -755.72,0z"/></g></svg>