<?xml version="1.0" encoding="UTF-8" standalone="no"?>
<svg
   xmlns:dc="http://purl.org/dc/elements/1.1/"
   xmlns:cc="http://creativecommons.org/ns#"
   xmlns:rdf="http://www.w3.org/1999/02/22-rdf-syntax-ns#"
   xmlns:svg="http://www.w3.org/2000/svg"
   xmlns="http://www.w3.org/2000/svg"
   xmlns:sodipodi="http://sodipodi.sourceforge.net/DTD/sodipodi-0.dtd"
   xmlns:inkscape="http://www.inkscape.org/namespaces/inkscape"
   height="300px"
   width="300px"
   fill="#000000"
   version="1.1"
   x="0px"
   y="0px"
   viewBox="0 0 98 98"
   style="enable-background:new 0 0 98 98;"
   xml:space="preserve"
   id="svg4"
   sodipodi:docname="move.svg"
   inkscape:export-filename="/home/adrien/Stockage/Code/osm-indoor-editor/public/img/move.png"
   inkscape:export-xdpi="20.48"
   inkscape:export-ydpi="20.48"
   inkscape:version="0.92.4 5da689c313, 2019-01-14"><metadata
     id="metadata10"><rdf:RDF><cc:Work
         rdf:about=""><dc:format>image/svg+xml</dc:format><dc:type
           rdf:resource="http://purl.org/dc/dcmitype/StillImage" /></cc:Work></rdf:RDF></metadata><defs
     id="defs8" /><sodipodi:namedview
     pagecolor="#ffffff"
     bordercolor="#666666"
     borderopacity="1"
     objecttolerance="10"
     gridtolerance="10"
     guidetolerance="10"
     inkscape:pageopacity="0"
     inkscape:pageshadow="2"
     inkscape:window-width="1920"
     inkscape:window-height="1015"
     id="namedview6"
     showgrid="false"
     inkscape:zoom="1.5733333"
     inkscape:cx="103.49851"
     inkscape:cy="175.75194"
     inkscape:window-x="0"
     inkscape:window-y="576"
     inkscape:window-maximized="1"
     inkscape:current-layer="svg4" /><path
     d="M93.4,49.2c0,0.8-0.3,1.6-0.9,2.1L81.7,62c-0.6,0.6-1.4,0.8-2.1,0.8c-0.8,0-1.6-0.3-2.1-0.9  c-1.2-1.2-1.1-3.2,0-4.3L83,52H52v31l5.6-5.6c1.2-1.2,3.1-1.1,4.3,0c1.2,1.2,1.1,3.1,0,4.3L51.2,92.5c-0.6,0.6-1.4,0.9-2.2,0.9  s-1.5-0.3-2.1-0.9L36.1,81.8c-1.2-1.2-1.2-3.1,0-4.3s3.1-1.2,4.3,0L46,83V52H15.1l5.6,5.6c1.2,1.2,1.2,3.2,0,4.4  C20,62.7,19.3,63,18.5,63s-1.5-0.3-2.1-0.9L5.5,51.4c-0.6-0.5-0.9-1.3-0.9-2.1s0.3-1.6,0.9-2.1l10.7-10.7c1.2-1.2,3.1-1.2,4.3,0  c1.2,1.2,1.1,3,0,4.3L15.1,46H46V15l-5.6,5.6c-1.2,1.2-3.1,1.1-4.3,0c-1.2-1.2-1.1-3.1,0-4.3L46.9,5.5c1.2-1.2,3.1-1.2,4.3,0  L62,16.2c1.2,1.2,1.2,3.1,0,4.3c-0.6,0.6-1.4,0.9-2.1,0.9c-0.8,0-1.6-0.3-2.1-0.9L52,15v31h30.9l-5.6-5.4c-1.2-1.2-1.2-3,0-4.2  c1.2-1.2,3.1-1.2,4.3,0l10.7,10.7C93.1,47.6,93.4,48.4,93.4,49.2z"
     id="path2"
     style="stroke:#ffffff;stroke-opacity:1;stroke-width:6.53333333;stroke-miterlimit:4;stroke-dasharray:none;paint-order:markers stroke fill" /></svg>